<?xml version="1.0" encoding="UTF-8"?>
<svg xmlns="http://www.w3.org/2000/svg" xmlns:xlink="http://www.w3.org/1999/xlink" viewBox="0 0 416.21 321.12">
  <defs>
    <style>
      .cls-1 {
        fill: url(#Degradado_sin_nombre_27);
        filter: url(#drop-shadow-5);
      }

      .cls-2 {
        fill: url(#Degradado_sin_nombre_40-2);
        filter: url(#drop-shadow-3);
      }

      .cls-3 {
        fill: url(#Degradado_sin_nombre_53-7);
      }

      .cls-3, .cls-4, .cls-5, .cls-6, .cls-7, .cls-8 {
        mix-blend-mode: overlay;
        opacity: .5;
      }

      .cls-9 {
        filter: url(#drop-shadow-2);
      }

      .cls-9, .cls-10, .cls-11, .cls-12 {
        fill: #6b1db7;
      }

      .cls-9, .cls-13, .cls-14, .cls-15, .cls-11, .cls-12 {
        mix-blend-mode: multiply;
      }

      .cls-9, .cls-14, .cls-11, .cls-12 {
        opacity: .3;
      }

      .cls-4 {
        fill: url(#Degradado_sin_nombre_53-3);
      }

      .cls-16 {
        isolation: isolate;
      }

      .cls-17 {
        fill: url(#Degradado_sin_nombre_40-3);
        filter: url(#drop-shadow-6);
      }

      .cls-5 {
        fill: url(#Degradado_sin_nombre_53);
      }

      .cls-18 {
        fill: url(#Degradado_sin_nombre_2);
        filter: url(#drop-shadow-7);
      }

      .cls-13 {
        fill: url(#Degradado_sin_nombre_5);
      }

      .cls-19 {
        fill: url(#Degradado_sin_nombre_53-4);
      }

      .cls-15 {
        fill: url(#Degradado_sin_nombre_5-2);
      }

      .cls-6 {
        fill: url(#Degradado_sin_nombre_53-6);
      }

      .cls-20 {
        fill: url(#Degradado_sin_nombre_53-5);
      }

      .cls-12 {
        filter: url(#drop-shadow-4);
      }

      .cls-21 {
        fill: url(#Degradado_sin_nombre_2-2);
      }

      .cls-8 {
        fill: url(#Degradado_sin_nombre_53-2);
      }

      .cls-22 {
        fill: url(#Degradado_sin_nombre_40);
        filter: url(#drop-shadow-1);
      }

      .cls-23 {
        fill: url(#Degradado_sin_nombre_40-4);
      }
    </style>
    <linearGradient id="Degradado_sin_nombre_40" data-name="Degradado sin nombre 40" x1="-158.15" y1="148.24" x2="-158.15" y2="53.29" gradientTransform="translate(-100.32 132.59) rotate(-180)" gradientUnits="userSpaceOnUse">
      <stop offset="0" stop-color="#0091cb"/>
      <stop offset=".15" stop-color="#058ac9"/>
      <stop offset=".36" stop-color="#1679c6"/>
      <stop offset=".6" stop-color="#305cc1"/>
      <stop offset=".87" stop-color="#5533ba"/>
      <stop offset="1" stop-color="#6b1db7"/>
    </linearGradient>
    <filter id="drop-shadow-1" filterUnits="userSpaceOnUse">
      <feOffset dx="2" dy="2"/>
      <feGaussianBlur result="blur" stdDeviation="2"/>
      <feFlood flood-color="#000" flood-opacity=".5"/>
      <feComposite in2="blur" operator="in"/>
      <feComposite in="SourceGraphic"/>
    </filter>
    <linearGradient id="Degradado_sin_nombre_53" data-name="Degradado sin nombre 53" x1="24.01" y1="69.74" x2="51.7" y2="17.75" gradientUnits="userSpaceOnUse">
      <stop offset="0" stop-color="#fff"/>
      <stop offset=".11" stop-color="#fff" stop-opacity=".98"/>
      <stop offset=".23" stop-color="#fff" stop-opacity=".93"/>
      <stop offset=".36" stop-color="#fff" stop-opacity=".84"/>
      <stop offset=".5" stop-color="#fff" stop-opacity=".71"/>
      <stop offset=".64" stop-color="#fff" stop-opacity=".55"/>
      <stop offset=".78" stop-color="#fff" stop-opacity=".36"/>
      <stop offset=".93" stop-color="#fff" stop-opacity=".13"/>
      <stop offset="1" stop-color="#fff" stop-opacity="0"/>
    </linearGradient>
    <linearGradient id="Degradado_sin_nombre_5" data-name="Degradado sin nombre 5" x1="-158.15" y1="111.67" x2="-158.15" y2="49.97" gradientTransform="translate(-81.56 113.84) rotate(-180)" gradientUnits="userSpaceOnUse">
      <stop offset="0" stop-color="#6b1db7" stop-opacity="0"/>
      <stop offset=".11" stop-color="#6b1db7" stop-opacity=".05"/>
      <stop offset=".29" stop-color="#6b1db7" stop-opacity=".2"/>
      <stop offset=".53" stop-color="#6b1db7" stop-opacity=".43"/>
      <stop offset=".81" stop-color="#6b1db7" stop-opacity=".75"/>
      <stop offset="1" stop-color="#6b1db7"/>
    </linearGradient>
    <filter id="drop-shadow-2" filterUnits="userSpaceOnUse">
      <feOffset dx="2" dy="2"/>
      <feGaussianBlur result="blur-2" stdDeviation="2"/>
      <feFlood flood-color="#000" flood-opacity=".5"/>
      <feComposite in2="blur-2" operator="in"/>
      <feComposite in="SourceGraphic"/>
    </filter>
    <linearGradient id="Degradado_sin_nombre_40-2" data-name="Degradado sin nombre 40" y1="258.44" y2="163.49" gradientTransform="translate(10.19 -172.35) rotate(-180) scale(1 -1)" xlink:href="#Degradado_sin_nombre_40"/>
    <filter id="drop-shadow-3" filterUnits="userSpaceOnUse">
      <feOffset dx="2" dy="2"/>
      <feGaussianBlur result="blur-3" stdDeviation="2"/>
      <feFlood flood-color="#000" flood-opacity=".5"/>
      <feComposite in2="blur-3" operator="in"/>
      <feComposite in="SourceGraphic"/>
    </filter>
    <linearGradient id="Degradado_sin_nombre_5-2" data-name="Degradado sin nombre 5" y1="221.87" y2="160.17" gradientTransform="translate(-8.57 -153.59) rotate(-180) scale(1 -1)" xlink:href="#Degradado_sin_nombre_5"/>
    <filter id="drop-shadow-4" filterUnits="userSpaceOnUse">
      <feOffset dx="2" dy="2"/>
      <feGaussianBlur result="blur-4" stdDeviation="2"/>
      <feFlood flood-color="#000" flood-opacity=".5"/>
      <feComposite in2="blur-4" operator="in"/>
      <feComposite in="SourceGraphic"/>
    </filter>
    <linearGradient id="Degradado_sin_nombre_27" data-name="Degradado sin nombre 27" x1="110.39" y1="5.29" x2="143.95" y2="301.94" gradientUnits="userSpaceOnUse">
      <stop offset="0" stop-color="#f7a524"/>
      <stop offset=".14" stop-color="#f7a028"/>
      <stop offset=".3" stop-color="#f79235"/>
      <stop offset=".46" stop-color="#f87c4c"/>
      <stop offset=".64" stop-color="#fa5c6b"/>
      <stop offset=".81" stop-color="#fc3393"/>
      <stop offset=".99" stop-color="#fe02c3"/>
      <stop offset="1" stop-color="#ff00c6"/>
    </linearGradient>
    <filter id="drop-shadow-5" filterUnits="userSpaceOnUse">
      <feOffset dx="2.87" dy="2.87"/>
      <feGaussianBlur result="blur-5" stdDeviation="2.87"/>
      <feFlood flood-color="#000" flood-opacity=".5"/>
      <feComposite in2="blur-5" operator="in"/>
      <feComposite in="SourceGraphic"/>
    </filter>
    <linearGradient id="Degradado_sin_nombre_53-2" data-name="Degradado sin nombre 53" x1="58.29" y1="-.12" x2="158.32" y2="19.1" xlink:href="#Degradado_sin_nombre_53"/>
    <linearGradient id="Degradado_sin_nombre_53-3" data-name="Degradado sin nombre 53" x1="83.65" y1="31.21" x2="88.17" y2="309.82" xlink:href="#Degradado_sin_nombre_53"/>
    <linearGradient id="Degradado_sin_nombre_40-3" data-name="Degradado sin nombre 40" x1="237.62" y1="45.13" x2="312.48" y2="106.09" gradientTransform="matrix(1,0,0,1,0,0)" xlink:href="#Degradado_sin_nombre_40"/>
    <filter id="drop-shadow-6" filterUnits="userSpaceOnUse">
      <feOffset dx="2.94" dy="2.94"/>
      <feGaussianBlur result="blur-6" stdDeviation="2.94"/>
      <feFlood flood-color="#000" flood-opacity=".5"/>
      <feComposite in2="blur-6" operator="in"/>
      <feComposite in="SourceGraphic"/>
    </filter>
    <linearGradient id="Degradado_sin_nombre_2" data-name="Degradado sin nombre 2" x1="182.35" y1="302.56" x2="341.28" y2="235.96" gradientUnits="userSpaceOnUse">
      <stop offset="0" stop-color="#f7a524"/>
      <stop offset=".21" stop-color="#f7a226"/>
      <stop offset=".37" stop-color="#f79830"/>
      <stop offset=".51" stop-color="#f8883f"/>
      <stop offset=".64" stop-color="#f97255"/>
      <stop offset=".76" stop-color="#fa5572"/>
      <stop offset=".87" stop-color="#fc3195"/>
      <stop offset=".98" stop-color="#fe08be"/>
      <stop offset="1" stop-color="#ff00c6"/>
    </linearGradient>
    <filter id="drop-shadow-7" filterUnits="userSpaceOnUse">
      <feOffset dx="2.94" dy="2.94"/>
      <feGaussianBlur result="blur-7" stdDeviation="2.94"/>
      <feFlood flood-color="#000" flood-opacity=".5"/>
      <feComposite in2="blur-7" operator="in"/>
      <feComposite in="SourceGraphic"/>
    </filter>
    <linearGradient id="Degradado_sin_nombre_2-2" data-name="Degradado sin nombre 2" x1="350.76" y1="40.28" x2="309.02" y2="145.67" xlink:href="#Degradado_sin_nombre_2"/>
    <linearGradient id="Degradado_sin_nombre_40-4" data-name="Degradado sin nombre 40" x1="259.63" y1="105.26" x2="361.33" y2="274.99" gradientTransform="matrix(1,0,0,1,0,0)" xlink:href="#Degradado_sin_nombre_40"/>
    <linearGradient id="Degradado_sin_nombre_53-4" data-name="Degradado sin nombre 53" x1="265.38" y1="206.35" x2="302.79" y2="134.19" xlink:href="#Degradado_sin_nombre_53"/>
    <linearGradient id="Degradado_sin_nombre_53-5" data-name="Degradado sin nombre 53" x1="355.07" y1="211.37" x2="388.67" y2="267.46" xlink:href="#Degradado_sin_nombre_53"/>
    <linearGradient id="Degradado_sin_nombre_53-6" data-name="Degradado sin nombre 53" x1="168.31" y1="313.53" x2="268.2" y2="227.25" xlink:href="#Degradado_sin_nombre_53"/>
    <linearGradient id="Degradado_sin_nombre_53-7" data-name="Degradado sin nombre 53" x1="241.92" y1="58.7" x2="265.44" y2="4.41" xlink:href="#Degradado_sin_nombre_53"/>
  </defs>
  <g class="cls-16">
    <g id="OBJECTS">
      <g>
        <rect class="cls-22" x="28.85" y="-18.35" width="57.96" height="107.14" transform="translate(22.61 93.05) rotate(-90)"/>
        <polygon class="cls-5" points="4.26 6.24 4.26 64.2 14.25 17.46 111.4 6.24 4.26 6.24"/>
        <rect class="cls-13" x="47.61" y=".41" width="57.96" height="69.62" transform="translate(41.36 111.81) rotate(-90)"/>
        <path class="cls-9" d="m52.58,6.24c9.55,8.41,15.75,20.82,15.75,33.56v24.4h43.07V6.24h-58.82Z"/>
        <rect class="cls-2" x="139.36" y="-18.35" width="57.96" height="107.14" transform="translate(133.11 203.56) rotate(-90)"/>
        <rect class="cls-15" x="120.6" y=".41" width="57.96" height="69.62" transform="translate(114.36 184.8) rotate(-90)"/>
        <path class="cls-12" d="m173.59,6.24c-9.55,8.41-15.75,20.82-15.75,33.56v24.4h-43.07V6.24h58.82Z"/>
        <path class="cls-1" d="m172.75,6.24H50.05c27.23,10.51,31.7,29.59,32.43,50.61v251.97h57.84V56.85c.73-21.02,5.2-40.1,32.43-50.61Z"/>
        <path class="cls-8" d="m172.75,6.24H50.05c7.93,3.06,13.89,6.87,18.43,11.22,0,0,96.34-8.16,104.27-11.22Z"/>
        <path class="cls-4" d="m93.69,68.07c-.6-17.16-3.69-33.01-19.61-43.98,6.34,9.48,7.98,20.81,8.39,32.76v251.97h11.22V68.07Z"/>
        <g>
          <path class="cls-17" d="m246.17,63.19h26.49c18.41,0,33.39,15,33.39,33.39,0,12.34-6.71,23.11-16.7,28.88-.05.05-.09.07-.14.07-4.15,2.4-8.87,3.89-13.93,4.27-.05.02-.07.02-.1.02h-.05c-.36.02-.71.05-1.07.07v38.43h55.02c-.27-.21-.52-.44-.79-.65,1.3-1.02,2.57-2.05,3.81-3.14,18.91-16.56,30.89-40.88,30.89-67.96,0-20.98-7.19-40.29-19.22-55.64-16.56-21.09-42.28-34.69-71.11-34.69h-26.49v56.95Z"/>
          <path class="cls-11" d="m343.78,40.93c-4.94-6.29-10.71-11.89-17.11-16.69,3.59,9.04,5.75,18.81,6.2,28.95,1.24,27.75-14.65,52.88-37.25,67.56-1.9,1.8-4,3.39-6.28,4.7-.05.05-.09.07-.14.07-3.28,1.89-6.93,3.2-10.81,3.86-1.43.52-2.87,1-4.33,1.44v37.5h55.02c-.27-.21-.52-.44-.79-.65,1.3-1.02,2.57-2.05,3.81-3.14,18.91-16.56,30.89-40.88,30.89-67.96,0-20.98-7.19-40.29-19.22-55.64Z"/>
          <path class="cls-18" d="m379.78,156.98v21.05h-64.68v7.15c.36.02.71.05,1.07.07h.05s.05,0,.09.02c5.05.38,9.78,1.87,13.93,4.27.05,0,.09.02.14.07,9.99,5.77,16.7,16.54,16.7,28.88,0,18.39-14.97,33.39-33.39,33.39h-152.46v56.95h152.46c28.83,0,54.55-13.6,71.11-34.69,12.03-15.35,19.22-34.67,19.22-55.64,0-23.75-9.22-45.38-24.25-61.51Z"/>
          <g>
            <path class="cls-21" d="m343.78,40.93c-8.28,55.76-36.54,74.93-54.43,82.69-.05.05-.09.07-.14.07-6.55,2.85-11.7,3.92-13.93,4.27-.05.02-.07.02-.1.02h-.05c-.47.07-.78.12-.95.12-.03,0-.03,0-.04,0v57.19c35.19-1.77,59.93-21.72,59.93-21.72,18.91-16.56,28.92-40.81,28.92-67.89,0-20.98-7.19-39.42-19.22-54.77Z"/>
            <g class="cls-14">
              <path class="cls-10" d="m373.14,150.53c-15.57-13.62-41.62-13.11-63.81-13.44l5.77,40.81c6.65,3.81,12.77,8.42,18.28,13.69,3.64,2.66,6.72,6.02,9.04,9.9,13.18,16.6,21.24,37.61,22.25,60.14.52,11.65-2.2,24.11-7.05,35.75,10.53-5.89,19.79-13.81,27.19-23.25,12.03-15.35,19.22-34.67,19.22-55.64,0-27.07-11.98-51.4-30.89-67.96Z"/>
            </g>
            <path class="cls-23" d="m373.14,150.53s-28.5-26.09-71-22.38l-86.18.02v56.93h99.13s.05,0,.12.02c.17,0,.47.05.95.12h.05s.05,0,.09.02c2.23.36,7.38,1.42,13.93,4.27.05,0,.09.02.14.07,17.89,7.76,46.15,28.76,54.43,84.52,12.03-15.35,19.22-34.67,19.22-55.64,0-27.07-11.98-51.4-30.89-67.96Z"/>
            <g class="cls-7">
              <path class="cls-19" d="m221.9,134.11l86.18-.02c42.5-3.72,71,22.38,71,22.38.49.43.95.88,1.43,1.32-2.32-2.55-4.77-4.98-7.36-7.25,0,0-28.5-26.09-71-22.38l-86.18.02v56.93l5.94-50.99Z"/>
              <path class="cls-20" d="m357.14,209.06c11.95,13.19,23,33.59,27.67,65.08,1.36-1.74,2.65-3.53,3.88-5.36-6.43-29.89-18.98-48.36-31.55-59.71Z"/>
            </g>
          </g>
          <polygon class="cls-6" points="161.24 308.82 171.18 262.97 318.56 251.52 161.24 251.87 161.24 308.82"/>
          <polygon class="cls-3" points="246.17 63.19 257.37 15.5 282.87 6.82 246.17 6.24 246.17 63.19"/>
        </g>
      </g>
    </g>
  </g>
</svg>